<svg width="200" height="56" viewBox="0 0 200 56" fill="none" xmlns="http://www.w3.org/2000/svg">
<path d="M22.9488 24.7827C22.3352 23.6648 21.5523 22.8528 20.6001 22.3466C19.6691 21.8193 18.6217 21.5557 17.4579 21.5557C16.2307 21.5557 15.1198 21.8721 14.1253 22.5048C13.1519 23.1165 12.3796 23.9601 11.8083 25.0358C11.2582 26.1114 10.9831 27.3347 10.9831 28.7056C10.9831 30.1398 11.2582 31.3948 11.8083 32.4704C12.3585 33.525 13.1308 34.3581 14.1253 34.9697C15.1198 35.5603 16.2836 35.8556 17.6166 35.8556C18.4418 35.8556 19.2036 35.7185 19.9018 35.4443C20.6001 35.149 21.2243 34.7483 21.7745 34.2421C22.3246 33.7359 22.7901 33.1559 23.171 32.5021V31.11H17.4579V27.2503H27.7732V33.3879C27.2654 34.5479 26.5248 35.6341 25.5514 36.6465C24.5781 37.6378 23.4037 38.4498 22.0284 39.0825C20.653 39.6942 19.0872 40 17.3309 40C15.6805 40 14.1676 39.7258 12.7922 39.1774C11.4169 38.6291 10.2213 37.8487 9.20567 36.8363C8.19002 35.8239 7.39653 34.6323 6.82522 33.2613C6.27507 31.8693 6 30.3508 6 28.7056C6 27.0605 6.27507 25.5525 6.82522 24.1816C7.39653 22.7895 8.17944 21.5873 9.17394 20.575C10.1896 19.5626 11.3851 18.7822 12.7605 18.2338C14.1359 17.6855 15.6488 17.4113 17.2992 17.4113C18.8439 17.4113 20.2933 17.6538 21.6475 18.1389C23.0229 18.624 24.2184 19.3306 25.2341 20.2586C26.2497 21.1655 27.0009 22.2728 27.4875 23.5805L22.9488 24.7827Z" fill="#333333"/>
<path d="M35.8638 40C34.2345 40 32.8168 39.6625 31.6107 38.9876C30.4046 38.2916 29.463 37.3214 28.7859 36.077C28.1299 34.8326 27.802 33.3774 27.802 31.7111C27.802 30.1715 28.1299 28.8006 28.7859 27.5983C29.4418 26.3961 30.3623 25.4576 31.5472 24.7827C32.7321 24.0867 34.0758 23.7387 35.5781 23.7387C37.1651 23.7387 38.5404 24.0656 39.7042 24.7194C40.868 25.3521 41.7779 26.2591 42.4338 27.4402C43.0898 28.6213 43.4177 29.9922 43.4177 31.553C43.4177 31.8061 43.4071 32.0697 43.386 32.3439C43.3648 32.6181 43.3331 32.9239 43.2908 33.2613H32.7533C32.8591 33.8308 33.0601 34.3265 33.3563 34.7483C33.6526 35.149 34.0229 35.4654 34.4672 35.6974C34.9327 35.9083 35.4617 36.0138 36.0542 36.0138C36.7101 36.0138 37.3026 35.8767 37.8316 35.6025C38.3606 35.3283 38.752 34.9381 39.006 34.4319L43.1638 35.5708C42.529 36.984 41.5768 38.0807 40.3073 38.8611C39.0377 39.6204 37.5565 40 35.8638 40ZM38.3712 30.2558C38.35 29.7286 38.2125 29.2646 37.9586 28.8638C37.7046 28.4631 37.3767 28.1467 36.9746 27.9147C36.5726 27.6827 36.1283 27.5773 35.6416 27.5983C35.1549 27.6194 34.7106 27.746 34.3085 27.978C33.9277 28.1889 33.5997 28.4947 33.3246 28.8955C33.0495 29.2751 32.8803 29.7286 32.8168 30.2558H38.3712Z" fill="#333333"/>
<path d="M44.0079 23.9601H48.1975L48.5149 25.6685C49.0439 25.099 49.6681 24.635 50.3875 24.2765C51.1069 23.9179 51.8898 23.7387 52.7362 23.7387C53.9846 23.7387 55.032 24.0023 55.8784 24.5296C56.7459 25.0569 57.4019 25.8267 57.8462 26.8391C58.3117 27.8514 58.5445 29.0853 58.5445 30.5406V39.7785H53.9106V31.11C53.9106 30.0555 53.6884 29.254 53.244 28.7056C52.8208 28.1573 52.1755 27.8831 51.3079 27.8831C50.4192 27.8831 49.7527 28.1678 49.3084 28.7373C48.864 29.2856 48.6418 30.0871 48.6418 31.1417V39.7785H44.0079V23.9601Z" fill="#333333"/>
<path d="M60.2736 23.9601H64.9075V39.7785H60.2736V23.9601ZM62.5905 22.3466C61.723 22.3466 61.0141 22.0935 60.464 21.5873C59.935 21.0601 59.6705 20.4273 59.6705 19.6891C59.6705 18.9298 59.935 18.2971 60.464 17.7909C61.0141 17.2636 61.723 17 62.5905 17C63.4369 17 64.1246 17.2636 64.6536 17.7909C65.2037 18.2971 65.4788 18.9298 65.4788 19.6891C65.4788 20.4273 65.2037 21.0601 64.6536 21.5873C64.1246 22.0935 63.4369 22.3466 62.5905 22.3466Z" fill="#333333"/>
<path d="M74.1419 40C72.5126 40 71.0949 39.6625 69.8888 38.9876C68.6827 38.2916 67.7411 37.3214 67.064 36.077C66.4081 34.8326 66.0801 33.3774 66.0801 31.7111C66.0801 30.1715 66.4081 28.8006 67.064 27.5983C67.72 26.3961 68.6404 25.4576 69.8254 24.7827C71.0103 24.0867 72.3539 23.7387 73.8563 23.7387C75.4432 23.7387 76.8186 24.0656 77.9824 24.7194C79.1462 25.3521 80.056 26.2591 80.712 27.4402C81.3679 28.6213 81.6959 29.9922 81.6959 31.553C81.6959 31.8061 81.6853 32.0697 81.6641 32.3439C81.643 32.6181 81.6112 32.9239 81.5689 33.2613H71.0315C71.1373 33.8308 71.3383 34.3265 71.6345 34.7483C71.9307 35.149 72.301 35.4654 72.7454 35.6974C73.2109 35.9083 73.7399 36.0138 74.3323 36.0138C74.9883 36.0138 75.5808 35.8767 76.1098 35.6025C76.6387 35.3283 77.0302 34.9381 77.2841 34.4319L81.442 35.5708C80.8072 36.984 79.855 38.0807 78.5854 38.8611C77.3159 39.6204 75.8347 40 74.1419 40ZM76.6493 30.2558C76.6282 29.7286 76.4906 29.2646 76.2367 28.8638C75.9828 28.4631 75.6548 28.1467 75.2528 27.9147C74.8508 27.6827 74.4064 27.5773 73.9197 27.5983C73.4331 27.6194 72.9887 27.746 72.5867 27.978C72.2058 28.1889 71.8778 28.4947 71.6028 28.8955C71.3277 29.2751 71.1584 29.7286 71.0949 30.2558H76.6493Z" fill="#333333"/>
<path d="M86.2217 33.2613C86.3487 33.873 86.5814 34.3792 86.92 34.7799C87.2585 35.1807 87.6923 35.4865 88.2213 35.6974C88.7503 35.8872 89.3533 35.9821 90.0304 35.9821C91.1519 35.9821 91.9983 35.7396 92.5696 35.2545C93.1409 34.7694 93.4266 34.1683 93.4266 33.4512C93.4266 32.8606 93.2467 32.3861 92.887 32.0275C92.5484 31.6479 92.0512 31.3315 91.3952 31.0784C90.7604 30.8253 90.0304 30.5722 89.2052 30.3191C88.3588 30.0871 87.5125 29.8235 86.6661 29.5282C85.8197 29.2118 85.0368 28.8322 84.3174 28.3893C83.6191 27.9253 83.0584 27.3242 82.6352 26.586C82.212 25.8478 82.011 24.9303 82.0321 23.8336C82.0321 22.4626 82.3707 21.3026 83.0478 20.3535C83.746 19.3833 84.6876 18.6557 85.8726 18.1706C87.0787 17.6644 88.4646 17.4113 90.0304 17.4113C91.4058 17.4113 92.6331 17.6116 93.7122 18.0124C94.7913 18.392 95.6906 18.972 96.4101 19.7524C97.1295 20.5117 97.6373 21.4503 97.9335 22.5681L93.4266 23.5488C93.3419 23.0848 93.1303 22.6946 92.7918 22.3783C92.4744 22.0408 92.0829 21.7983 91.6174 21.6506C91.1519 21.4819 90.6758 21.387 90.1891 21.3659C89.5967 21.3659 89.0571 21.4608 88.5704 21.6506C88.1049 21.8404 87.724 22.1146 87.4278 22.4732C87.1527 22.8317 87.0152 23.243 87.0152 23.707C87.0152 24.2343 87.1739 24.6667 87.4913 25.0041C87.8298 25.3205 88.2848 25.5947 88.8561 25.8267C89.4274 26.0587 90.0516 26.2907 90.7287 26.5227C91.5962 26.7969 92.4744 27.0922 93.3631 27.4085C94.2729 27.7249 95.1087 28.1362 95.8705 28.6424C96.6322 29.1275 97.2459 29.7602 97.7114 30.5406C98.1769 31.2999 98.4096 32.249 98.4096 33.3879C98.4096 34.6323 98.1134 35.7501 97.5209 36.7414C96.9285 37.7327 96.0292 38.5236 94.8231 39.1142C93.6381 39.7047 92.1358 40 90.3161 40C88.7926 40 87.4278 39.7785 86.2217 39.3356C85.0156 38.8927 84.0211 38.2494 83.2382 37.4058C82.4553 36.5621 81.9369 35.5392 81.683 34.337L86.2217 33.2613Z" fill="#333333"/>
<path d="M100.364 23.9601V19.5309H105.093V23.9601H108.363V28.0413H105.093V33.7359C105.093 34.453 105.252 34.9592 105.57 35.2545C105.908 35.5497 106.331 35.7079 106.839 35.729C107.347 35.729 107.855 35.6868 108.363 35.6025V39.6204C107.284 39.8102 106.257 39.8629 105.284 39.7785C104.311 39.7153 103.454 39.4622 102.713 39.0193C101.994 38.5763 101.422 37.9225 100.999 37.0578C100.576 36.193 100.364 35.0857 100.364 33.7359V28.0413H98.1426V23.9601H100.364Z" fill="#333333"/>
<path d="M123.123 39.7785H118.902L118.584 38.0385C118.055 38.6291 117.431 39.1036 116.712 39.4622C116.013 39.8207 115.241 40 114.395 40C113.21 40 112.183 39.7364 111.316 39.2091C110.448 38.6818 109.771 37.912 109.285 36.8996C108.798 35.8661 108.555 34.6323 108.555 33.1981V23.9601H113.189V32.6286C113.189 33.6832 113.4 34.4846 113.823 35.033C114.268 35.5814 114.934 35.8556 115.823 35.8556C116.669 35.8556 117.325 35.5708 117.791 35.0014C118.256 34.4319 118.489 33.6199 118.489 32.5653V23.9601H123.123V39.7785Z" fill="#333333"/>
<path d="M135.77 26.3961L135.135 26.4278V17H139.769V39.7785H135.579L135.293 37.7854C134.87 38.3971 134.246 38.9243 133.421 39.3673C132.596 39.7891 131.675 40 130.66 40C129.326 40 128.131 39.6731 127.073 39.0193C126.036 38.3443 125.222 37.3952 124.629 36.1719C124.037 34.9486 123.74 33.5144 123.74 31.8693C123.74 30.2031 124.037 28.7689 124.629 27.5667C125.222 26.3434 126.036 25.4049 127.073 24.751C128.11 24.0761 129.305 23.7387 130.66 23.7387C131.866 23.7387 132.902 24.0023 133.77 24.5296C134.638 25.0358 135.304 25.658 135.77 26.3961ZM128.723 31.8693C128.723 33.0293 129.02 33.9679 129.612 34.685C130.205 35.381 130.977 35.729 131.929 35.729C132.5 35.729 133.029 35.5814 133.516 35.2861C134.003 34.9908 134.394 34.5585 134.69 33.989C134.987 33.4195 135.135 32.713 135.135 31.8693C135.135 31.0257 134.987 30.3191 134.69 29.7497C134.394 29.1802 134.003 28.7478 133.516 28.4525C133.029 28.1362 132.5 27.978 131.929 27.978C130.956 27.978 130.173 28.3365 129.58 29.0536C129.009 29.7707 128.723 30.7093 128.723 31.8693Z" fill="#333333"/>
<path d="M141.665 23.9601H146.299V39.7785H141.665V23.9601ZM143.982 22.3466C143.115 22.3466 142.406 22.0935 141.856 21.5873C141.327 21.0601 141.062 20.4273 141.062 19.6891C141.062 18.9298 141.327 18.2971 141.856 17.7909C142.406 17.2636 143.115 17 143.982 17C144.829 17 145.516 17.2636 146.045 17.7909C146.595 18.2971 146.87 18.9298 146.87 19.6891C146.87 20.4273 146.595 21.0601 146.045 21.5873C145.516 22.0935 144.829 22.3466 143.982 22.3466Z" fill="#333333"/>
<path d="M155.534 40C153.989 40 152.603 39.6731 151.376 39.0193C150.148 38.3654 149.186 37.4269 148.487 36.2036C147.81 34.9803 147.472 33.5355 147.472 31.8693C147.472 30.2031 147.821 28.7689 148.519 27.5667C149.239 26.3434 150.212 25.4049 151.439 24.751C152.688 24.0761 154.074 23.7387 155.597 23.7387C157.163 23.7387 158.559 24.0761 159.787 24.751C161.035 25.4049 162.019 26.3434 162.738 27.5667C163.458 28.7689 163.817 30.1926 163.817 31.8377C163.817 33.525 163.447 34.9803 162.707 36.2036C161.987 37.4269 160.993 38.3654 159.723 39.0193C158.475 39.6731 157.078 40 155.534 40ZM155.534 35.8239C156.084 35.8239 156.613 35.6763 157.12 35.381C157.628 35.0857 158.03 34.6534 158.327 34.0839C158.644 33.4934 158.803 32.7552 158.803 31.8693C158.803 30.9835 158.644 30.2558 158.327 29.6864C158.03 29.0958 157.639 28.6529 157.152 28.3576C156.666 28.0624 156.147 27.9147 155.597 27.9147C155.005 27.9147 154.476 28.0624 154.01 28.3576C153.545 28.6529 153.164 29.0958 152.867 29.6864C152.592 30.2558 152.455 30.9835 152.455 31.8693C152.455 32.7552 152.592 33.4934 152.867 34.0839C153.142 34.6534 153.513 35.0857 153.978 35.381C154.444 35.6763 154.962 35.8239 155.534 35.8239Z" fill="#333333"/>
<path d="M166.104 39.9051C165.702 39.9051 165.364 39.768 165.089 39.4938C164.835 39.2196 164.708 38.8822 164.708 38.4814C164.708 38.0807 164.835 37.7432 165.089 37.4691C165.364 37.1949 165.702 37.0578 166.104 37.0578C166.485 37.0578 166.813 37.1949 167.088 37.4691C167.363 37.7432 167.501 38.0807 167.501 38.4814C167.501 38.8822 167.363 39.2196 167.088 39.4938C166.813 39.768 166.485 39.9051 166.104 39.9051Z" fill="#333333"/>
<path d="M170.349 23.9601H172.126V39.7785H170.349V23.9601ZM171.269 20.4168C170.867 20.4168 170.539 20.2902 170.285 20.0371C170.031 19.784 169.905 19.4677 169.905 19.088C169.905 18.6873 170.031 18.3604 170.285 18.1073C170.539 17.8542 170.867 17.7276 171.269 17.7276C171.629 17.7276 171.936 17.8542 172.19 18.1073C172.465 18.3604 172.602 18.6873 172.602 19.088C172.602 19.4677 172.465 19.784 172.19 20.0371C171.936 20.2902 171.629 20.4168 171.269 20.4168Z" fill="#333333"/>
<path d="M182.16 40C180.679 40 179.346 39.6731 178.161 39.0193C176.997 38.3654 176.077 37.4374 175.4 36.2352C174.744 35.0119 174.416 33.5672 174.416 31.901C174.416 30.2137 174.755 28.7584 175.432 27.5351C176.109 26.3118 177.029 25.3732 178.193 24.7194C179.378 24.0656 180.722 23.7387 182.224 23.7387C183.705 23.7387 185.027 24.0656 186.191 24.7194C187.376 25.3732 188.307 26.3118 188.984 27.5351C189.661 28.7373 190 30.1715 190 31.8377C190 33.525 189.651 34.9803 188.953 36.2036C188.275 37.4269 187.344 38.3654 186.16 39.0193C184.996 39.6731 183.663 40 182.16 40ZM182.16 38.2916C183.176 38.2916 184.128 38.0702 185.017 37.6272C185.927 37.1632 186.657 36.4567 187.207 35.5076C187.778 34.5585 188.064 33.3457 188.064 31.8693C188.064 30.3929 187.778 29.1802 187.207 28.2311C186.657 27.282 185.937 26.586 185.049 26.1431C184.16 25.679 183.208 25.447 182.192 25.447C181.176 25.447 180.224 25.679 179.336 26.1431C178.447 26.586 177.727 27.282 177.177 28.2311C176.627 29.1802 176.352 30.3929 176.352 31.8693C176.352 33.3457 176.627 34.5585 177.177 35.5076C177.727 36.4567 178.436 37.1632 179.304 37.6272C180.193 38.0702 181.145 38.2916 182.16 38.2916Z" fill="#333333"/>
</svg>
