<svg width="200" height="56" viewBox="0 0 200 56" fill="none" xmlns="http://www.w3.org/2000/svg">
<path d="M6.59503 23.072H11.1674V38.7126H6.59503V23.072ZM8.88122 21.4767C8.0252 21.4767 7.32578 21.2264 6.78294 20.726C6.26098 20.2046 6 19.579 6 18.8491C6 18.0983 6.26098 17.4727 6.78294 16.9722C7.32578 16.4509 8.0252 16.1902 8.88122 16.1902C9.71636 16.1902 10.3949 16.4509 10.9169 16.9722C11.4597 17.4727 11.7311 18.0983 11.7311 18.8491C11.7311 19.579 11.4597 20.2046 10.9169 20.726C10.3949 21.2264 9.71636 21.4767 8.88122 21.4767Z" fill="#333333"/>
<path d="M16.1118 27.7642C16.1118 26.1376 16.3832 24.6465 16.9261 23.291C17.4898 21.9146 18.2623 20.726 19.2436 19.725C20.2249 18.724 21.3941 17.9524 22.7512 17.4101C24.1082 16.8679 25.5802 16.5968 27.1669 16.5968C29.5262 16.5968 31.5827 17.1703 33.3365 18.3173C35.0903 19.4643 36.3639 21.07 37.1572 23.1346L33.0233 24.1669C32.6266 23.3327 32.1256 22.6654 31.5201 22.1649C30.9146 21.6435 30.2465 21.2682 29.5158 21.0388C28.785 20.7885 28.0125 20.6634 27.1983 20.6634C25.9455 20.6634 24.8494 20.9762 23.9099 21.6018C22.9704 22.2066 22.2396 23.0408 21.7177 24.1043C21.2166 25.1679 20.966 26.3878 20.966 27.7642C20.966 29.1614 21.2166 30.3918 21.7177 31.4554C22.2396 32.5189 22.9704 33.3531 23.9099 33.9579C24.8494 34.5626 25.9455 34.865 27.1983 34.865C28.0334 34.865 28.8268 34.7399 29.5784 34.4897C30.3509 34.2394 31.0503 33.8223 31.6767 33.2384C32.3239 32.6545 32.8667 31.8725 33.3052 30.8923L37.3765 31.8308C36.5413 34.1456 35.2364 35.9077 33.4618 37.1173C31.6871 38.3268 29.5888 38.9316 27.1669 38.9316C25.5802 38.9316 24.1082 38.6605 22.7512 38.1183C21.3941 37.5761 20.2249 36.8149 19.2436 35.8347C18.2623 34.8338 17.4898 33.6555 16.9261 32.3C16.3832 30.9236 16.1118 29.4117 16.1118 27.7642Z" fill="#333333"/>
<path d="M52.6908 38.7126H48.5255L48.2124 36.9921C47.6904 37.5761 47.0745 38.0453 46.3646 38.3998C45.6756 38.7543 44.9136 38.9316 44.0784 38.9316C42.9092 38.9316 41.8966 38.6709 41.0406 38.1496C40.1846 37.6282 39.5165 36.867 39.0363 35.866C38.5561 34.8442 38.316 33.6242 38.316 32.2061V23.072H42.8884V31.6431C42.8884 32.6858 43.0972 33.4782 43.5147 34.0204C43.9532 34.5626 44.6108 34.8338 45.4877 34.8338C46.3229 34.8338 46.9701 34.5522 47.4294 33.9892C47.8887 33.4261 48.1184 32.6232 48.1184 31.5805V23.072H52.6908V38.7126Z" fill="#333333"/>
<path d="M54.3022 16.1902H58.8745V38.7126H54.3022V16.1902Z" fill="#333333"/>
<path d="M61.0616 23.072H65.634V38.7126H61.0616V23.072ZM63.3478 21.4767C62.4918 21.4767 61.7924 21.2264 61.2495 20.726C60.7276 20.2046 60.4666 19.579 60.4666 18.8491C60.4666 18.0983 60.7276 17.4727 61.2495 16.9722C61.7924 16.4509 62.4918 16.1902 63.3478 16.1902C64.183 16.1902 64.8615 16.4509 65.3835 16.9722C65.9263 17.4727 66.1977 18.0983 66.1977 18.8491C66.1977 19.579 65.9263 20.2046 65.3835 20.726C64.8615 21.2264 64.183 21.4767 63.3478 21.4767Z" fill="#333333"/>
<path d="M67.7932 23.072H71.9271L72.2403 24.7612C72.7623 24.1982 73.3782 23.7394 74.088 23.3848C74.7979 23.0303 75.5704 22.8531 76.4055 22.8531C77.6374 22.8531 78.6708 23.1137 79.506 23.6351C80.362 24.1564 81.0092 24.9176 81.4477 25.9186C81.907 26.9196 82.1367 28.1396 82.1367 29.5785V38.7126H77.5643V30.1416C77.5643 29.0989 77.3451 28.3064 76.9066 27.7642C76.4891 27.222 75.8523 26.9509 74.9962 26.9509C74.1194 26.9509 73.4617 27.2324 73.0232 27.7955C72.5848 28.3377 72.3656 29.1302 72.3656 30.1729V38.7126H67.7932V23.072Z" fill="#333333"/>
<path d="M92.6117 38.7126L92.2985 36.7732C91.7556 37.4405 91.171 37.9619 90.5447 38.3372C89.9183 38.7126 89.0728 38.9003 88.008 38.9003C87.0476 38.9003 86.1811 38.7335 85.4086 38.3998C84.6361 38.0453 84.0202 37.5344 83.5609 36.867C83.1224 36.1997 82.9032 35.3968 82.9032 34.4584C82.9032 33.1654 83.3625 32.0914 84.2812 31.2364C85.2207 30.3814 86.6718 29.8496 88.6343 29.6411L92.2985 29.2344V28.2021C92.2985 27.8476 92.121 27.5035 91.7661 27.1699C91.432 26.8153 90.8996 26.6381 90.1689 26.6381C89.5217 26.6381 88.9579 26.8049 88.4777 27.1386C88.0184 27.4723 87.7052 27.9519 87.5382 28.5775L83.6235 27.1699C84.0828 25.7726 84.8866 24.7091 86.035 23.9792C87.2042 23.2284 88.6448 22.8531 90.3568 22.8531C92.4864 22.8531 94.1045 23.3848 95.211 24.4484C96.3176 25.512 96.8709 26.9405 96.8709 28.7339V38.7126H92.6117ZM92.2985 32.0497L89.3859 32.3938C88.8014 32.4772 88.3525 32.6649 88.0393 32.9569C87.747 33.228 87.6008 33.5721 87.6008 33.9892C87.6008 34.3854 87.7679 34.7191 88.1019 34.9902C88.436 35.2613 88.8953 35.3968 89.4799 35.3968C90.0645 35.3968 90.5656 35.2821 90.9831 35.0527C91.4007 34.8025 91.7243 34.4584 91.954 34.0204C92.1836 33.5616 92.2985 32.9986 92.2985 32.3313V32.0497Z" fill="#333333"/>
<path d="M98.2887 23.072H102.454L102.767 25.1366C103.164 24.5944 103.634 24.146 104.176 23.7915C104.74 23.4161 105.356 23.1659 106.024 23.0408C106.713 22.9156 107.465 22.9261 108.279 23.072V27.3888C107.736 27.2011 107.152 27.149 106.525 27.2324C105.899 27.295 105.304 27.5035 104.74 27.8581C104.176 28.1917 103.717 28.6922 103.362 29.3595C103.028 30.0269 102.861 30.8715 102.861 31.8933V38.7126H98.2887V23.072Z" fill="#333333"/>
<path d="M119.478 23.072H124.426L115.156 44.9688H110.489L113.59 37.9931L107.389 23.072H112.494L115.97 32.4251L119.478 23.072Z" fill="#333333"/>
<path d="M123.995 27.7642C123.995 26.1376 124.266 24.6465 124.809 23.291C125.373 21.9146 126.145 20.726 127.127 19.725C128.108 18.724 129.277 17.9524 130.634 17.4101C131.991 16.8679 133.463 16.5968 135.05 16.5968C137.409 16.5968 139.466 17.1703 141.22 18.3173C142.973 19.4643 144.247 21.07 145.04 23.1346L140.906 24.1669C140.51 23.3327 140.009 22.6654 139.403 22.1649C138.798 21.6435 138.13 21.2682 137.399 21.0388C136.668 20.7885 135.896 20.6634 135.081 20.6634C133.829 20.6634 132.732 20.9762 131.793 21.6018C130.853 22.2066 130.123 23.0408 129.601 24.1043C129.1 25.1679 128.849 26.3878 128.849 27.7642C128.849 29.1614 129.1 30.3918 129.601 31.4554C130.123 32.5189 130.853 33.3531 131.793 33.9579C132.732 34.5626 133.829 34.865 135.081 34.865C135.916 34.865 136.71 34.7399 137.461 34.4897C138.234 34.2394 138.933 33.8223 139.56 33.2384C140.207 32.6545 140.75 31.8725 141.188 30.8923L145.259 31.8308C144.424 34.1456 143.119 35.9077 141.345 37.1173C139.57 38.3268 137.472 38.9316 135.05 38.9316C133.463 38.9316 131.991 38.6605 130.634 38.1183C129.277 37.5761 128.108 36.8149 127.127 35.8347C126.145 34.8338 125.373 33.6555 124.809 32.3C124.266 30.9236 123.995 29.4117 123.995 27.7642Z" fill="#333333"/>
<path d="M146.387 16.1902H150.959V24.6987C151.439 24.1565 152.024 23.7185 152.713 23.3848C153.423 23.0303 154.227 22.8531 155.125 22.8531C156.315 22.8531 157.348 23.1137 158.225 23.6351C159.102 24.1564 159.78 24.9176 160.261 25.9186C160.741 26.9196 160.981 28.1396 160.981 29.5785V38.7126H156.158V30.1416C156.158 29.0989 155.939 28.3064 155.5 27.7642C155.083 27.222 154.446 26.9509 153.59 26.9509C152.713 26.9509 152.055 27.2637 151.617 27.8893C151.179 28.515 150.959 29.3595 150.959 30.4231V38.7126H146.387V16.1902Z" fill="#333333"/>
<path d="M169.665 38.9316C168.057 38.9316 166.658 38.5979 165.468 37.9306C164.278 37.2424 163.349 36.2831 162.681 35.0527C162.034 33.8223 161.71 32.3834 161.71 30.7359C161.71 29.2136 162.034 27.8581 162.681 26.6694C163.328 25.4807 164.237 24.5527 165.406 23.8853C166.575 23.1972 167.901 22.8531 169.383 22.8531C170.949 22.8531 172.306 23.1763 173.454 23.8228C174.603 24.4484 175.5 25.3451 176.148 26.513C176.795 27.6808 177.119 29.0363 177.119 30.5795C177.119 30.8298 177.108 31.0904 177.087 31.3615C177.066 31.6326 177.035 31.935 176.993 32.2687H166.596C166.7 32.8318 166.899 33.3218 167.191 33.7389C167.483 34.1351 167.849 34.4479 168.287 34.6773C168.746 34.8859 169.268 34.9902 169.853 34.9902C170.5 34.9902 171.085 34.8546 171.607 34.5835C172.129 34.3124 172.515 33.9266 172.765 33.4261L176.868 34.5522C176.242 35.9494 175.302 37.0339 174.049 37.8055C172.797 38.5562 171.335 38.9316 169.665 38.9316ZM172.139 29.297C172.118 28.7756 171.982 28.3168 171.732 27.9206C171.481 27.5244 171.158 27.2116 170.761 26.9822C170.364 26.7528 169.926 26.6485 169.446 26.6694C168.966 26.6902 168.527 26.8153 168.13 27.0447C167.755 27.2533 167.431 27.5557 167.16 27.9519C166.888 28.3273 166.721 28.7756 166.658 29.297H172.139Z" fill="#333333"/>
<path d="M178.828 21.9146C178.828 20.434 179.1 19.2453 179.643 18.3486C180.206 17.4519 181.01 16.8262 182.054 16.4717C183.098 16.1172 184.371 16.0234 185.875 16.1902V20.2567C185.04 20.1316 184.413 20.2463 183.996 20.6008C183.599 20.9345 183.401 21.4871 183.401 22.2587V23.072H186V27.1073H183.401V38.7126H178.828V27.1073H177.043V23.072H178.828V21.9146Z" fill="#333333"/>
<path d="M27.0625 43.8902C31.3771 43.8902 35.3003 42.2165 38.2169 39.4836C38.8952 40.7791 39.7377 41.9754 40.7166 43.0448C37.0792 46.256 32.2987 48.2048 27.0625 48.2048C20.9017 48.2048 15.3717 45.5069 11.5922 41.2294C12.7643 40.3813 13.8226 39.386 14.7401 38.2706C17.73 41.7131 22.1417 43.8902 27.0625 43.8902Z" fill="#333333"/>
<path d="M14.7402 16.9341C17.7301 13.4917 22.1418 11.3146 27.0625 11.3146C33.2046 11.3146 38.5536 14.7065 41.3344 19.7173C42.3694 18.6995 43.5356 17.8145 44.8054 17.0899C41.2099 11.0485 34.6096 7 27.0625 7C20.9018 7 15.3718 9.69784 11.5923 13.9753C12.7644 14.8234 13.8228 15.8187 14.7402 16.9341Z" fill="#333333"/>
</svg>
