<svg width="200" height="56" viewBox="0 0 200 56" fill="none" xmlns="http://www.w3.org/2000/svg">
<path d="M10.8877 39.7481H6V17.7102H11.7075L18.2349 33.4201L24.7938 17.7102H30.4698V39.7481H25.5821V26.3365L20.19 39.7481H16.2798L10.8877 26.3365V39.7481Z" fill="#333333"/>
<path d="M39.5967 39.9685C37.978 39.9685 36.5695 39.6327 35.3712 38.9611C34.173 38.2685 33.2375 37.303 32.5648 36.0647C31.9131 34.8263 31.5872 33.3781 31.5872 31.7201C31.5872 30.1879 31.9131 28.8236 32.5648 27.6273C33.2165 26.431 34.1309 25.497 35.3082 24.8253C36.4854 24.1327 37.8203 23.7864 39.3129 23.7864C40.8896 23.7864 42.256 24.1117 43.4122 24.7624C44.5684 25.392 45.4724 26.2945 46.1241 27.4699C46.7758 28.6452 47.1016 30.0095 47.1016 31.5626C47.1016 31.8145 47.0911 32.0769 47.0701 32.3497C47.049 32.6226 47.0175 32.9269 46.9755 33.2627H36.5064C36.6115 33.8294 36.8113 34.3226 37.1056 34.7424C37.3999 35.1412 37.7678 35.456 38.2092 35.6869C38.6717 35.8968 39.1973 36.0017 39.7859 36.0017C40.4376 36.0017 41.0262 35.8653 41.5518 35.5924C42.0773 35.3196 42.4662 34.9313 42.7185 34.4276L46.8493 35.5609C46.2187 36.9672 45.2727 38.0586 44.0113 38.8351C42.75 39.5907 41.2785 39.9685 39.5967 39.9685ZM42.0878 30.2718C42.0668 29.7471 41.9302 29.2854 41.6779 28.8866C41.4256 28.4878 41.0998 28.173 40.7004 27.9421C40.3009 27.7113 39.8595 27.6063 39.376 27.6273C38.8925 27.6483 38.451 27.7742 38.0516 28.0051C37.6732 28.215 37.3473 28.5193 37.074 28.9181C36.8007 29.2959 36.6326 29.7471 36.5695 30.2718H42.0878Z" fill="#333333"/>
<path d="M62.2878 39.7481H58.0939L57.7786 38.0166C57.253 38.6043 56.6329 39.0765 55.9181 39.4333C55.2244 39.7901 54.4571 39.9685 53.6162 39.9685C52.4389 39.9685 51.4194 39.7062 50.5574 39.1814C49.6955 38.6567 49.0228 37.8907 48.5393 36.8832C48.0558 35.8548 47.8141 34.627 47.8141 33.1997V24.0068H52.4179V32.633C52.4179 33.6825 52.6281 34.48 53.0486 35.0257C53.49 35.5714 54.1522 35.8443 55.0352 35.8443C55.8761 35.8443 56.5277 35.5609 56.9902 34.9943C57.4527 34.4276 57.684 33.6195 57.684 32.5701V24.0068H62.2878V39.7481Z" fill="#333333"/>
<path d="M66.5591 40C65.6762 40 64.9614 39.7376 64.4148 39.2129C63.8682 38.6672 63.595 38.0061 63.595 37.2295C63.595 36.4739 63.8682 35.8338 64.4148 35.3091C64.9614 34.7634 65.6762 34.4905 66.5591 34.4905C67.421 34.4905 68.1252 34.7634 68.6718 35.3091C69.2184 35.8338 69.4917 36.4739 69.4917 37.2295C69.4917 38.0061 69.2184 38.6672 68.6718 39.2129C68.1252 39.7376 67.421 40 66.5591 40Z" fill="#333333"/>
<path d="M70.0679 28.7292C70.0679 27.0921 70.3412 25.5914 70.8878 24.2272C71.4554 22.8419 72.2332 21.6456 73.2212 20.6381C74.2093 19.6307 75.3865 18.8541 76.7529 18.3084C78.1194 17.7627 79.6014 17.4899 81.1991 17.4899C83.5746 17.4899 85.6453 18.0671 87.4112 19.2214C89.177 20.3758 90.4594 21.9919 91.2582 24.0698L87.0958 25.1087C86.6964 24.2691 86.1919 23.5975 85.5822 23.0938C84.9726 22.5691 84.2999 22.1913 83.5641 21.9604C82.8283 21.7086 82.0505 21.5826 81.2307 21.5826C79.9693 21.5826 78.8657 21.8974 77.9197 22.5271C76.9737 23.1358 76.2379 23.9753 75.7124 25.0457C75.2078 26.1161 74.9556 27.344 74.9556 28.7292C74.9556 30.1354 75.2078 31.3737 75.7124 32.4442C76.2379 33.5146 76.9737 34.3541 77.9197 34.9628C78.8657 35.5714 79.9693 35.8758 81.2307 35.8758C82.0716 35.8758 82.8704 35.7498 83.6272 35.498C84.405 35.2461 85.1093 34.8263 85.7399 34.2387C86.3916 33.651 86.9382 32.8639 87.3796 31.8775L91.479 32.8219C90.6381 35.1517 89.3242 36.9252 87.5373 38.1425C85.7504 39.3599 83.6377 39.9685 81.1991 39.9685C79.6014 39.9685 78.1194 39.6957 76.7529 39.15C75.3865 38.6043 74.2093 37.8382 73.2212 36.8517C72.2332 35.8443 71.4554 34.6584 70.8878 33.2942C70.3412 31.9089 70.0679 30.3873 70.0679 28.7292Z" fill="#333333"/>
<path d="M92.6142 17.0806H97.218V25.6439C97.7015 25.0982 98.2901 24.6574 98.9839 24.3216C99.6986 23.9648 100.508 23.7864 101.412 23.7864C102.61 23.7864 103.651 24.0488 104.534 24.5735C105.417 25.0982 106.1 25.8643 106.583 26.8717C107.067 27.8792 107.309 29.107 107.309 30.5552V39.7481H102.453V31.1219C102.453 30.0725 102.232 29.2749 101.79 28.7292C101.37 28.1835 100.729 27.9106 99.8668 27.9106C98.9839 27.9106 98.3217 28.2255 97.8802 28.8551C97.4387 29.4848 97.218 30.3348 97.218 31.4052V39.7481H92.6142V17.0806Z" fill="#333333"/>
<path d="M116.052 39.9685C114.434 39.9685 113.025 39.6327 111.827 38.9611C110.629 38.2685 109.693 37.303 109.021 36.0647C108.369 34.8263 108.043 33.3781 108.043 31.7201C108.043 30.1879 108.369 28.8236 109.021 27.6273C109.672 26.431 110.587 25.497 111.764 24.8253C112.941 24.1327 114.276 23.7864 115.769 23.7864C117.345 23.7864 118.712 24.1117 119.868 24.7624C121.024 25.392 121.928 26.2945 122.58 27.4699C123.232 28.6452 123.557 30.0095 123.557 31.5626C123.557 31.8145 123.547 32.0769 123.526 32.3497C123.505 32.6226 123.473 32.9269 123.431 33.2627H112.962C113.067 33.8294 113.267 34.3226 113.561 34.7424C113.856 35.1412 114.224 35.456 114.665 35.6869C115.127 35.8968 115.653 36.0017 116.242 36.0017C116.893 36.0017 117.482 35.8653 118.008 35.5924C118.533 35.3196 118.922 34.9313 119.174 34.4276L123.305 35.5609C122.674 36.9672 121.728 38.0586 120.467 38.8351C119.206 39.5907 117.734 39.9685 116.052 39.9685ZM118.544 30.2718C118.523 29.7471 118.386 29.2854 118.134 28.8866C117.881 28.4878 117.556 28.173 117.156 27.9421C116.757 27.7113 116.315 27.6063 115.832 27.6273C115.348 27.6483 114.907 27.7742 114.507 28.0051C114.129 28.215 113.803 28.5193 113.53 28.9181C113.257 29.2959 113.088 29.7471 113.025 30.2718H118.544Z" fill="#333333"/>
<path d="M125.279 22.8419C125.279 21.3517 125.552 20.1554 126.099 19.2529C126.666 18.3504 127.476 17.7207 128.527 17.3639C129.578 17.0071 130.86 16.9127 132.374 17.0806V21.1733C131.533 21.0474 130.902 21.1629 130.482 21.5197C130.082 21.8555 129.883 22.4117 129.883 23.1882V24.0068H132.5V28.0681H129.883V39.7481H125.279V28.0681H123.482V24.0068H125.279V22.8419Z" fill="#333333"/>
</svg>
