<svg width="200" height="56" viewBox="0 0 200 56" fill="none" xmlns="http://www.w3.org/2000/svg">
<path d="M162.146 36.5625L162.157 36.5742L162.168 36.5853C162.251 36.6625 162.353 36.8262 162.432 37.1457C162.509 37.46 162.553 37.8827 162.553 38.4256C162.553 38.9681 162.509 39.3945 162.431 39.7156C162.353 40.0411 162.248 40.2198 162.157 40.311L162.151 40.3167L162.146 40.3226C162.068 40.405 161.905 40.5075 161.585 40.5862C161.271 40.6635 160.848 40.7074 160.305 40.7074C159.763 40.7074 159.336 40.6636 159.015 40.5858C158.69 40.5069 158.511 40.4023 158.42 40.311C158.329 40.2198 158.224 40.0411 158.145 39.7156C158.067 39.3945 158.023 38.9681 158.023 38.4256C158.023 37.8827 158.067 37.46 158.145 37.1457C158.223 36.8262 158.326 36.6625 158.408 36.5853L158.414 36.5797L158.42 36.574C158.511 36.4828 158.69 36.3782 159.015 36.2993C159.336 36.2215 159.763 36.1777 160.305 36.1777C160.848 36.1777 161.271 36.2215 161.585 36.2989C161.905 36.3776 162.068 36.4801 162.146 36.5625ZM168.757 14.85L168.763 14.8563L168.769 14.8624C168.833 14.9262 168.923 15.0736 168.992 15.3755C169.059 15.6704 169.098 16.0676 169.098 16.5783C169.098 17.075 169.057 17.4641 168.985 17.7565C168.912 18.0525 168.817 18.2129 168.735 18.2941C168.672 18.3579 168.524 18.4472 168.222 18.5165C167.928 18.5842 167.53 18.6226 167.02 18.6226C166.523 18.6226 166.134 18.5817 165.841 18.5098C165.553 18.4388 165.393 18.3461 165.31 18.2662C165.236 18.1842 165.149 18.0229 165.081 17.7301C165.014 17.4346 164.975 17.0427 164.975 16.5443C164.975 16.0456 165.014 15.6574 165.081 15.3688C165.15 15.074 165.239 14.9277 165.304 14.8624C165.384 14.7827 165.545 14.6865 165.848 14.6132C166.147 14.541 166.545 14.5 167.054 14.5C167.563 14.5 167.957 14.541 168.249 14.6128C168.546 14.6858 168.692 14.7798 168.757 14.85ZM168.725 22.6079V40.2664H165.315V22.6079H168.725ZM183.287 39.0377L183.287 39.0377L183.284 39.0405C182.073 40.1488 180.279 40.7413 177.821 40.7413C174.674 40.7413 172.706 39.8208 171.703 38.1359L171.703 38.1359L171.7 38.1312C170.705 36.5006 170.179 34.1405 170.179 30.9961C170.179 28.0616 170.703 25.8259 171.697 24.2393L171.699 24.237C172.75 22.538 174.686 21.6241 177.685 21.6241C180.732 21.6241 182.695 22.4405 183.758 23.9257L183.758 23.9257L183.763 23.9319C184.893 25.4595 185.497 27.7882 185.497 30.9961C185.497 35.16 184.7 37.7664 183.287 39.0377ZM182.086 32.0139V30.2498C182.086 28.5424 181.835 27.1655 181.278 26.1748C180.674 25.0575 179.433 24.5933 177.821 24.5933C176.453 24.5933 175.356 25.0612 174.621 26.0502C173.906 27.0114 173.589 28.3931 173.589 30.1141V31.8782C173.589 33.7184 173.905 35.1873 174.611 36.2081C175.34 37.2623 176.439 37.7721 177.821 37.7721C178.683 37.7721 179.44 37.6115 180.061 37.2571C180.69 36.8989 181.148 36.3611 181.436 35.6685C181.876 34.6407 182.086 33.4172 182.086 32.0139Z" fill="#33906E" stroke="white"/>
<path d="M24.1496 33.6422C24.1496 35.9265 23.3128 37.7245 21.6392 39.0362C19.9655 40.3253 17.8283 40.9699 15.2274 40.9699C13.1694 40.9699 11.1791 40.4045 9.25674 39.2737C8.30686 38.6857 7.5266 37.8602 6.91596 36.7972C6.30532 35.7116 6 34.479 6 33.0994L10.2745 32.8959C10.2745 34.1172 10.7947 35.0671 11.835 35.7455C12.8753 36.424 14.0288 36.7633 15.2953 36.7633C18.1223 36.7633 19.5358 35.7682 19.5358 33.7779C19.5358 32.1496 18.5746 31.1884 16.6523 30.8944L12.717 30.4873C10.7494 30.1933 9.18889 29.4921 8.03546 28.384C6.88203 27.2758 6.30532 25.6813 6.30532 23.6006C6.30532 21.5199 7.13081 19.8011 8.7818 18.4441C10.4328 17.0871 12.5135 16.4086 15.0239 16.4086C17.5569 16.4086 19.5924 17.0532 21.1303 18.3423C22.6682 19.6088 23.4371 21.2485 23.4371 23.2614L19.2305 23.4649C18.846 21.4973 17.523 20.5135 15.2614 20.5135C13.8818 20.5135 12.7962 20.8075 12.0046 21.3955C11.2357 21.9835 10.8512 22.6847 10.8512 23.4988C10.8512 24.2904 11.1339 24.9237 11.6993 25.3986C12.2647 25.8509 12.9658 26.1336 13.8026 26.2467L17.67 26.6538C21.9897 27.2418 24.1496 29.5713 24.1496 33.6422Z" fill="#333333"/>
<path d="M39.8844 40.7664H36.933L35.576 38.4256L30.8605 40.9699C28.237 40.9699 26.4729 40.02 25.5683 38.1203C25.116 37.193 24.7993 36.1979 24.6184 35.1349C24.4601 34.0493 24.3809 32.9298 24.3809 31.7764C24.3809 30.6003 24.3922 29.7409 24.4149 29.1981C24.4375 28.6327 24.494 27.9882 24.5845 27.2644C24.6749 26.5181 24.7993 25.8962 24.9576 25.3986C25.1386 24.901 25.3874 24.3922 25.704 23.872C26.0206 23.3292 26.4051 22.8995 26.8574 22.5829C27.8751 21.8818 29.1982 21.5312 30.8266 21.5312H35.4742L39.8844 21.2598V40.7664ZM35.4742 34.5921V25.5004H32.1157C30.8718 25.5004 30.0011 25.9753 29.5035 26.9252C29.0286 27.8751 28.7911 29.2999 28.7911 31.1997C28.7911 33.0768 29.0173 34.3999 29.4696 35.1688C29.9445 35.9378 30.8266 36.3223 32.1157 36.3223L35.4742 34.5921Z" fill="#333333"/>
<path d="M47.8966 40.7664L43.4865 40.8003V15.2552H47.8966V40.7664Z" fill="#333333"/>
<path d="M66.1361 32.1156H54.8392C54.8392 33.8797 55.1106 35.1688 55.6534 35.983C56.2188 36.7972 57.3383 37.2043 59.0119 37.2043C60.0975 37.2043 60.9004 36.8651 61.4206 36.1866C61.9407 35.4855 62.2008 34.8183 62.2008 34.185H66.17C66.17 36.605 65.5141 38.3803 64.2024 39.5112C62.9132 40.642 61.1944 41.2074 59.0458 41.2074C56.9199 41.2074 55.2689 40.9021 54.0929 40.2914C51.6729 39.0475 50.463 35.7455 50.463 30.3855C50.463 27.1966 51.1528 24.8671 52.5324 23.3971C53.912 21.9044 56.0153 21.1581 58.8423 21.1581C63.75 21.1581 66.2039 23.8833 66.2039 29.3338C66.2039 29.9219 66.1813 30.8491 66.1361 32.1156ZM54.941 29.0964H62.2008C62.2008 27.6037 61.9181 26.5181 61.3527 25.8396C60.7873 25.1611 59.9166 24.8219 58.7405 24.8219C57.5871 24.8219 56.6598 25.1724 55.9587 25.8735C55.2802 26.552 54.941 27.6263 54.941 29.0964Z" fill="#333333"/>
<path d="M82.4826 35.4063V35.9152C82.3469 37.6114 81.6232 38.8892 80.3114 39.7486C79.0223 40.608 77.4052 41.0378 75.4602 41.0378C72.588 41.0378 70.5751 40.5176 69.4217 39.4772C68.3587 38.5274 67.8272 37.1251 67.8272 35.2706V34.8635H71.8303C71.8303 35.9039 72.1017 36.6163 72.6445 37.0008C73.1873 37.3852 74.1259 37.5775 75.4602 37.5775C77.2695 37.5775 78.1742 36.9216 78.1742 35.6099C78.1742 34.5243 77.8576 33.8006 77.2243 33.4387C76.9303 33.2578 76.5571 33.1221 76.1048 33.0316L72.6784 32.4549C69.6931 31.9799 68.2004 30.1141 68.2004 26.8574C68.2004 25.0481 68.8563 23.6458 70.168 22.6507C71.5024 21.633 73.1873 21.1241 75.2228 21.1241C79.8591 21.1241 82.1773 23.1257 82.1773 27.1287V27.5698H78.3438C78.2986 26.5068 78.0159 25.7831 77.4957 25.3986C76.9755 25.0141 76.2405 24.8219 75.2906 24.8219C74.3633 24.8219 73.6622 25.0141 73.1873 25.3986C72.7124 25.7605 72.4749 26.1676 72.4749 26.6199C72.4749 27.909 72.9951 28.644 74.0354 28.825L78.1403 29.5713C81.0351 30.1141 82.4826 32.0591 82.4826 35.4063Z" fill="#333333"/>
<path d="M99.2744 21.3955L92.7948 40.7664H89.3345L82.821 21.3955H87.4687L91.0647 34.0154L94.6267 21.3955H99.2744Z" fill="#33906E"/>
<path d="M111.357 32.0139V30.2498C111.357 28.5762 111.108 27.2984 110.611 26.4163C110.136 25.5343 109.129 25.0933 107.591 25.0933C105.104 25.0933 103.86 26.7669 103.86 30.1141V31.8782C103.86 35.4742 105.104 37.2721 107.591 37.2721C109.197 37.2721 110.249 36.6728 110.746 35.4742C111.153 34.5243 111.357 33.3708 111.357 32.0139ZM115.767 30.9961C115.767 35.1801 114.976 37.9846 113.392 39.4094C112.058 40.6307 110.124 41.2413 107.591 41.2413C104.357 41.2413 102.175 40.2914 101.044 38.3917C99.981 36.6502 99.4496 34.185 99.4496 30.9961C99.4496 28.0108 99.981 25.67 101.044 23.9738C102.22 22.074 104.357 21.1241 107.456 21.1241C110.577 21.1241 112.737 21.9609 113.935 23.6345C115.157 25.2855 115.767 27.7394 115.767 30.9961Z" fill="#33906E"/>
<path d="M120.516 14C121.579 14 122.268 14.1696 122.585 14.5089C122.902 14.8255 123.06 15.5153 123.06 16.5783C123.06 17.6186 122.89 18.3084 122.551 18.6476C122.234 18.9643 121.545 19.1226 120.482 19.1226C119.441 19.1226 118.751 18.953 118.412 18.6137C118.096 18.2745 117.937 17.5847 117.937 16.5443C117.937 15.504 118.096 14.8255 118.412 14.5089C118.751 14.1696 119.453 14 120.516 14ZM122.687 40.7664H118.277V22.1079H122.687V40.7664Z" fill="#33906E"/>
<path d="M136.507 33.6762L140.51 33.6422C140.488 33.8232 140.465 34.1511 140.442 34.626C140.42 35.101 140.397 35.4289 140.375 35.6099C140.375 35.7682 140.352 36.0283 140.307 36.3901C140.262 36.752 140.205 37.0234 140.137 37.2043C140.092 37.3626 140.024 37.5775 139.934 37.8489C139.526 39.0249 138.418 39.9522 136.609 40.6307C135.456 41.0378 134.246 41.2413 132.979 41.2413C131.735 41.2413 130.604 41.0378 129.587 40.6307C128.569 40.2236 127.766 39.7034 127.178 39.0701C125.844 37.6679 125.176 35.0444 125.176 31.1997C125.176 27.3323 125.844 24.6975 127.178 23.2953C127.766 22.662 128.569 22.1419 129.587 21.7348C130.604 21.3277 131.735 21.1241 132.979 21.1241C135.422 21.1241 137.276 21.7348 138.543 22.956C139.809 24.1773 140.442 25.8735 140.442 28.0447H136.439C136.439 27.0496 136.191 26.3146 135.693 25.8396C135.195 25.3421 134.268 25.0933 132.911 25.0933C131.577 25.0933 130.684 25.5117 130.231 26.3485C129.801 27.1853 129.587 28.4405 129.587 30.1141V31.8782C129.587 34.5695 130.107 36.2205 131.147 36.8311C131.622 37.1251 132.244 37.2721 133.013 37.2721C133.782 37.2721 134.404 37.2043 134.879 37.0686C135.376 36.9103 135.727 36.6502 135.93 36.2883C136.157 35.9265 136.304 35.5759 136.372 35.2367C136.439 34.8748 136.485 34.3546 136.507 33.6762Z" fill="#33906E"/>
<path d="M157.695 32.1156H146.398C146.398 33.8797 146.669 35.1688 147.212 35.983C147.778 36.7972 148.897 37.2043 150.571 37.2043C151.656 37.2043 152.459 36.8651 152.979 36.1866C153.5 35.4855 153.76 34.8183 153.76 34.185H157.729C157.729 36.605 157.073 38.3803 155.761 39.5112C154.472 40.642 152.753 41.2074 150.605 41.2074C148.479 41.2074 146.828 40.9021 145.652 40.2914C143.232 39.0475 142.022 35.7455 142.022 30.3855C142.022 27.1966 142.712 24.8671 144.091 23.3971C145.471 21.9044 147.574 21.1581 150.401 21.1581C155.309 21.1581 157.763 23.8833 157.763 29.3338C157.763 29.9219 157.74 30.8491 157.695 32.1156ZM146.5 29.0964H153.76C153.76 27.6037 153.477 26.5181 152.912 25.8396C152.346 25.1611 151.475 24.8219 150.299 24.8219C149.146 24.8219 148.219 25.1724 147.518 25.8735C146.839 26.552 146.5 27.6263 146.5 29.0964Z" fill="#33906E"/>
</svg>
