<svg width="128" height="128" viewBox="0 0 128 128" fill="none" xmlns="http://www.w3.org/2000/svg">
<path fill-rule="evenodd" clip-rule="evenodd" d="M62.2596 102.967C70.616 99.5057 77.6458 93.4784 82.342 85.7677C82.6293 85.296 82.4644 84.6836 81.9861 84.4075L61.5803 72.6259C61.1019 72.3497 60.4927 72.5155 60.189 72.9768C58.3181 75.8187 55.6343 78.0417 52.4771 79.3495C49.0111 80.7852 45.1683 81.0373 41.5446 80.0658C37.9209 79.0953 34.7188 76.956 32.4351 73.9795C30.1513 71.0031 28.9134 67.3566 28.9134 63.605C28.9134 59.8535 30.1513 56.2068 32.4351 53.2304C34.7188 50.2542 37.9208 48.1146 41.5446 47.1436C45.1683 46.1727 49.0111 46.4246 52.4771 47.8602C55.6343 49.168 58.3181 51.3915 60.189 54.233C60.4927 54.6943 61.1019 54.8601 61.5802 54.5839L81.9861 42.8025C82.4644 42.5263 82.6292 41.914 82.342 41.4423C77.6458 33.7319 70.616 27.7046 62.2596 24.2431C53.5947 20.654 43.9877 20.0243 34.9284 22.4518C25.8692 24.8791 17.8641 30.228 12.1546 37.6687C6.44511 45.1094 3.35041 54.2262 3.35041 63.605C3.35041 71.968 5.81103 80.1222 10.392 87.0662C10.5681 87.3331 10.611 87.6684 10.4988 87.9678C7.71676 95.3901 3.26535 100.911 1.72272 102.824L1.56417 103.021C0.142425 104.79 0.497007 105.852 2.63142 106.206C4.33481 106.488 17.5937 105.418 26.1341 101.738C26.4129 101.617 26.7284 101.626 27.0003 101.761C29.5226 103.014 32.1769 104.021 34.9284 104.758C43.9877 107.186 53.5947 106.556 62.2596 102.967ZM95.473 41.3963C95.8375 40.645 96.9079 40.645 97.2724 41.3963L103.964 55.1873C104.062 55.3893 104.225 55.5525 104.427 55.6505L118.219 62.3417C118.97 62.7062 118.97 63.7766 118.219 64.1411L104.427 70.8326C104.225 70.9306 104.062 71.0938 103.964 71.2958L97.2724 85.0863C96.9079 85.8376 95.8375 85.8375 95.473 85.0862L88.7825 71.2958C88.6845 71.0938 88.5213 70.9306 88.3193 70.8326L74.5278 64.1411C73.7765 63.7766 73.7765 62.7062 74.5278 62.3417L88.3193 55.6505C88.5213 55.5525 88.6845 55.3893 88.7825 55.1873L95.473 41.3963ZM120.945 39.7698C120.743 39.6718 120.58 39.5086 120.482 39.3066L117.662 33.4944C117.297 32.743 116.227 32.7431 115.862 33.4945L113.043 39.3066C112.945 39.5086 112.782 39.6718 112.58 39.7698L106.767 42.5899C106.016 42.9544 106.016 44.0247 106.767 44.3893L112.58 47.2094C112.782 47.3074 112.945 47.4706 113.043 47.6726L115.862 53.4847C116.227 54.2361 117.297 54.2362 117.662 53.4848L120.482 47.6726C120.58 47.4706 120.743 47.3074 120.945 47.2094L126.758 44.3893C127.509 44.0247 127.509 42.9544 126.758 42.5899L120.945 39.7698Z" fill="#33906E"/>
<rect x="26" y="43" width="44" height="43" rx="21.5" fill="#EEE9E1"/>
<path d="M35.616 64.4C35.616 62.528 35.928 60.812 36.552 59.252C37.2 57.668 38.088 56.3 39.216 55.148C40.344 53.996 41.688 53.108 43.248 52.484C44.808 51.86 46.5 51.548 48.324 51.548C51.036 51.548 53.4 52.208 55.416 53.528C57.432 54.848 58.896 56.696 59.808 59.072L55.056 60.26C54.6 59.3 54.024 58.532 53.328 57.956C52.632 57.356 51.864 56.924 51.024 56.66C50.184 56.372 49.296 56.228 48.36 56.228C46.92 56.228 45.66 56.588 44.58 57.308C43.5 58.004 42.66 58.964 42.06 60.188C41.484 61.412 41.196 62.816 41.196 64.4C41.196 66.008 41.484 67.424 42.06 68.648C42.66 69.872 43.5 70.832 44.58 71.528C45.66 72.224 46.92 72.572 48.36 72.572C49.32 72.572 50.232 72.428 51.096 72.14C51.984 71.852 52.788 71.372 53.508 70.7C54.252 70.028 54.876 69.128 55.38 68L60.06 69.08C59.1 71.744 57.6 73.772 55.56 75.164C53.52 76.556 51.108 77.252 48.324 77.252C46.5 77.252 44.808 76.94 43.248 76.316C41.688 75.692 40.344 74.816 39.216 73.688C38.088 72.536 37.2 71.18 36.552 69.62C35.928 68.036 35.616 66.296 35.616 64.4Z" fill="#33906E"/>
</svg>
