<svg width="128" height="128" viewBox="0 0 128 128" fill="none" xmlns="http://www.w3.org/2000/svg">
<path fill-rule="evenodd" clip-rule="evenodd" d="M62.2596 102.967C70.616 99.5057 77.6458 93.4784 82.342 85.7677C82.6293 85.296 82.4644 84.6836 81.9861 84.4075L61.5803 72.6259C61.1019 72.3497 60.4927 72.5155 60.189 72.9768C58.3181 75.8187 55.6343 78.0417 52.4771 79.3495C49.0111 80.7852 45.1683 81.0373 41.5446 80.0658C37.9209 79.0953 34.7188 76.956 32.4351 73.9795C30.1513 71.0031 28.9134 67.3566 28.9134 63.605C28.9134 59.8535 30.1513 56.2068 32.4351 53.2304C34.7188 50.2542 37.9208 48.1146 41.5446 47.1436C45.1683 46.1727 49.0111 46.4246 52.4771 47.8602C55.6343 49.168 58.3181 51.3915 60.189 54.233C60.4927 54.6943 61.1019 54.8601 61.5802 54.5839L81.9861 42.8025C82.4644 42.5263 82.6292 41.914 82.342 41.4423C77.6458 33.7319 70.616 27.7046 62.2596 24.2431C53.5947 20.654 43.9877 20.0243 34.9284 22.4518C25.8692 24.8791 17.8641 30.228 12.1546 37.6687C6.44511 45.1094 3.35041 54.2262 3.35041 63.605C3.35041 71.968 5.81103 80.1222 10.392 87.0662C10.5681 87.3331 10.611 87.6684 10.4988 87.9678C7.71676 95.3901 3.26535 100.911 1.72272 102.824L1.56417 103.021C0.142425 104.79 0.497007 105.852 2.63142 106.206C4.33481 106.488 17.5937 105.418 26.1341 101.738C26.4129 101.617 26.7284 101.626 27.0003 101.761C29.5226 103.014 32.1769 104.021 34.9284 104.758C43.9877 107.186 53.5947 106.556 62.2596 102.967ZM95.473 41.3963C95.8375 40.645 96.9079 40.645 97.2724 41.3963L103.964 55.1873C104.062 55.3893 104.225 55.5525 104.427 55.6505L118.219 62.3417C118.97 62.7062 118.97 63.7766 118.219 64.1411L104.427 70.8326C104.225 70.9306 104.062 71.0938 103.964 71.2958L97.2724 85.0863C96.9079 85.8376 95.8375 85.8375 95.473 85.0862L88.7825 71.2958C88.6845 71.0938 88.5213 70.9306 88.3193 70.8326L74.5278 64.1411C73.7765 63.7766 73.7765 62.7062 74.5278 62.3417L88.3193 55.6505C88.5213 55.5525 88.6845 55.3893 88.7825 55.1873L95.473 41.3963ZM120.945 39.7698C120.743 39.6718 120.58 39.5086 120.482 39.3066L117.662 33.4944C117.297 32.743 116.227 32.7431 115.862 33.4945L113.043 39.3066C112.945 39.5086 112.782 39.6718 112.58 39.7698L106.767 42.5899C106.016 42.9544 106.016 44.0247 106.767 44.3893L112.58 47.2094C112.782 47.3074 112.945 47.4706 113.043 47.6726L115.862 53.4847C116.227 54.2361 117.297 54.2362 117.662 53.4848L120.482 47.6726C120.58 47.4706 120.743 47.3074 120.945 47.2094L126.758 44.3893C127.509 44.0247 127.509 42.9544 126.758 42.5899L120.945 39.7698Z" fill="#33906E"/>
<rect x="26" y="43" width="44" height="43" rx="21.5" fill="#EEE9E1"/>
<path d="M39.6041 77H34.0241V51.8H40.5401L47.9921 69.764L55.4801 51.8H61.9601V77H56.3801V61.664L50.2241 77H45.7601L39.6041 61.664V77Z" fill="#33906E"/>
</svg>
