<svg width="655" height="145" viewBox="0 0 655 145" fill="none" xmlns="http://www.w3.org/2000/svg">
<g clip-path="url(#clip0_4143_429)">
<path fill-rule="evenodd" clip-rule="evenodd" d="M104.119 58.9511C103.794 60.7913 103.768 63.0279 103.768 66.4882C103.768 66.6143 103.768 66.7417 103.768 66.8706C103.77 69.8418 103.771 73.5462 103.099 77.0043C102.339 80.9135 100.623 85.1559 96.7037 88.7291C92.9289 92.1706 87.9878 94.1856 82.3898 95.3872C76.802 96.5867 69.8841 97.1187 61.4063 97.1187V78.555C69.1837 78.555 74.4572 78.0506 78.013 77.2873C81.5587 76.5262 82.7132 75.6522 83.0023 75.3887L83.0057 75.3855C83.1519 75.2524 83.4643 74.9677 83.7184 73.6604C84.0331 72.0415 84.0652 69.985 84.0652 66.4882C84.0652 66.375 84.0652 66.2608 84.0652 66.1454C84.0642 63.1348 84.0631 59.4154 84.6839 55.9023C85.3656 52.0446 86.8909 47.7555 90.4796 44.0059C97.4499 36.7232 109.239 34.4662 124.949 34.4662V53.0299C109.627 53.0299 105.9 55.6145 105.112 56.4377C104.822 56.741 104.408 57.321 104.119 58.9511Z" fill="#33906E"/>
<path fill-rule="evenodd" clip-rule="evenodd" d="M136.023 39.8803C135.417 40.3636 134.811 41.1205 134.811 42.8199V55.8144H154.022V74.3781H134.811V89.6932C134.811 94.961 133.837 101.701 129.101 107.202C124.03 113.09 116.335 115.682 107.227 115.682H79.15C72.2888 115.682 64.9071 114.305 59.2924 109.339C53.5555 104.265 51.5656 97.151 51.5656 89.6932V61.3836C51.5656 59.4876 50.9217 58.9244 50.5931 58.6733C50.0036 58.223 48.7648 57.7251 46.9625 57.7817C45.1645 57.8382 43.6528 58.4296 42.7766 59.1173C42.0981 59.6499 41.7031 60.2611 41.7031 61.3836V86.4446H22V61.3836C22 46.5115 35.6733 39.5621 46.3063 39.2283C51.8953 39.0528 58.048 40.4693 63.0021 44.2539C68.2171 48.2377 71.2688 54.2297 71.2688 61.3836V89.6932C71.2688 94.3019 72.4807 95.5418 72.7779 95.8047C73.1973 96.1756 74.682 97.1187 79.15 97.1187H107.227C112.404 97.1187 113.575 95.7668 113.8 95.5056C114.358 94.8571 115.108 93.2433 115.108 89.6932V42.8199C115.108 35.6702 118.257 29.7323 123.284 25.7186C128.099 21.8733 134.175 20.1349 139.897 20.0907C145.619 20.0465 151.763 21.6929 156.649 25.5689C161.757 29.6214 164.848 35.6277 164.848 42.8199H145.145C145.145 40.9309 144.481 40.1843 143.958 39.7688C143.211 39.1768 141.846 38.64 140.059 38.6538C138.272 38.6676 136.839 39.2285 136.023 39.8803Z" fill="#33906E"/>
<path d="M41.7031 106.802C41.7031 111.928 37.2924 116.084 31.8516 116.084C26.4107 116.084 22 111.928 22 106.802C22 101.676 26.4107 97.5201 31.8516 97.5201C37.2924 97.5201 41.7031 101.676 41.7031 106.802Z" fill="#33906E"/>
<path d="M41.7031 86.3819C41.7031 91.5081 37.2924 95.6638 31.8516 95.6638C26.4107 95.6638 22 91.5081 22 86.3819C22 81.2557 26.4107 77.1001 31.8516 77.1001C37.2924 77.1001 41.7031 81.2557 41.7031 86.3819Z" fill="#33906E"/>
<path d="M164.848 42.7572C164.848 47.8834 160.437 52.0391 154.996 52.0391C149.555 52.0391 145.145 47.8834 145.145 42.7572C145.145 37.631 149.555 33.4753 154.996 33.4753C160.437 33.4753 164.848 37.631 164.848 42.7572Z" fill="#33906E"/>
<path d="M164.848 65.0337C164.848 70.1599 160.437 74.3155 154.996 74.3155C149.555 74.3155 145.145 70.1599 145.145 65.0337C145.145 59.9074 149.555 55.7518 154.996 55.7518C160.437 55.7518 164.848 59.9074 164.848 65.0337Z" fill="#33906E"/>
<path d="M186.375 49.5H199.125L200.125 55.625C202.208 53.4583 204.667 51.75 207.5 50.5C210.417 49.25 213.542 48.625 216.875 48.625C221.792 48.625 226 49.6667 229.5 51.75C233.083 53.75 235.833 56.75 237.75 60.75C239.667 64.6667 240.625 69.5833 240.625 75.5V112H226.5V77.375C226.5 72.125 225.417 68.1667 223.25 65.5C221.167 62.8333 218 61.5 213.75 61.5C209.417 61.5 206.125 62.875 203.875 65.625C201.625 68.2917 200.5 72.25 200.5 77.5V112H186.375V49.5ZM275.449 112.875C269.199 112.875 263.699 111.5 258.949 108.75C254.283 106 250.616 102.167 247.949 97.25C245.366 92.3333 244.074 86.6667 244.074 80.25C244.074 74.1667 245.366 68.75 247.949 64C250.533 59.25 254.116 55.5 258.699 52.75C263.283 50 268.491 48.625 274.324 48.625C280.241 48.625 285.449 49.9167 289.949 52.5C294.449 55.0833 297.949 58.7083 300.449 63.375C303.033 67.9583 304.324 73.2917 304.324 79.375C304.324 80.375 304.283 81.4583 304.199 82.625C304.116 83.7083 303.991 84.875 303.824 86.125H259.324C259.741 89.0417 260.658 91.5833 262.074 93.75C263.574 95.8333 265.449 97.4583 267.699 98.625C269.949 99.7917 272.533 100.375 275.449 100.375C278.949 100.375 282.074 99.6667 284.824 98.25C287.658 96.8333 289.616 94.9583 290.699 92.625L303.074 96.75C300.574 101.75 296.866 105.708 291.949 108.625C287.033 111.458 281.533 112.875 275.449 112.875ZM288.949 74.625C288.866 72.0417 288.158 69.7083 286.824 67.625C285.491 65.5417 283.741 63.9167 281.574 62.75C279.408 61.5 276.991 60.875 274.324 60.875C271.991 60.875 269.783 61.4583 267.699 62.625C265.616 63.7917 263.824 65.4167 262.324 67.5C260.908 69.5 259.991 71.875 259.574 74.625H288.949ZM336.765 112.875C330.765 112.875 325.39 111.583 320.64 109C315.89 106.333 312.181 102.625 309.515 97.875C306.848 93.0417 305.515 87.375 305.515 80.875C305.515 74.2917 306.89 68.5833 309.64 63.75C312.39 58.9167 316.181 55.2083 321.015 52.625C325.848 49.9583 331.223 48.625 337.14 48.625C343.14 48.625 348.515 49.9583 353.265 52.625C358.098 55.2083 361.931 58.9167 364.765 63.75C367.598 68.5 369.015 74.125 369.015 80.625C369.015 87.2083 367.556 92.9167 364.64 97.75C361.806 102.583 357.931 106.333 353.015 109C348.181 111.583 342.765 112.875 336.765 112.875ZM336.64 100.25C339.556 100.25 342.306 99.5417 344.89 98.125C347.556 96.7083 349.723 94.5833 351.39 91.75C353.056 88.8333 353.89 85.125 353.89 80.625C353.89 76.2917 353.098 72.7083 351.515 69.875C349.931 66.9583 347.848 64.7917 345.265 63.375C342.681 61.9583 339.89 61.25 336.89 61.25C333.973 61.25 331.265 61.9583 328.765 63.375C326.348 64.7917 324.39 66.9583 322.89 69.875C321.39 72.7083 320.64 76.375 320.64 80.875C320.64 85.2083 321.348 88.8333 322.765 91.75C324.265 94.5833 326.223 96.7083 328.64 98.125C331.056 99.5417 333.723 100.25 336.64 100.25ZM382.504 91.875C383.087 94.2083 384.087 96 385.504 97.25C387.004 98.5 388.629 99.375 390.379 99.875C392.129 100.292 393.796 100.5 395.379 100.5C398.629 100.5 401.171 99.875 403.004 98.625C404.921 97.2917 405.879 95.625 405.879 93.625C405.879 91.9583 405.254 90.6667 404.004 89.75C402.754 88.8333 401.129 88.125 399.129 87.625C397.212 87.0417 395.212 86.4583 393.129 85.875C390.879 85.2917 388.462 84.625 385.879 83.875C383.379 83.125 381.004 82.0833 378.754 80.75C376.504 79.4167 374.671 77.7083 373.254 75.625C371.837 73.5417 371.129 70.9583 371.129 67.875C371.129 63.9583 372.212 60.5833 374.379 57.75C376.546 54.8333 379.504 52.5833 383.254 51C387.004 49.4167 391.212 48.625 395.879 48.625C401.462 48.625 406.296 49.7917 410.379 52.125C414.462 54.4583 417.421 57.875 419.254 62.375L406.879 66.375C406.296 65.2083 405.421 64.2083 404.254 63.375C403.171 62.5417 401.837 61.9583 400.254 61.625C398.754 61.2083 397.212 61 395.629 61C392.962 61 390.712 61.5417 388.879 62.625C387.046 63.7083 386.129 65.25 386.129 67.25C386.129 68.25 386.421 69.125 387.004 69.875C387.671 70.625 388.546 71.25 389.629 71.75C390.712 72.1667 392.004 72.5833 393.504 73C395.004 73.3333 396.587 73.75 398.254 74.25C400.921 75 403.546 75.8333 406.129 76.75C408.796 77.5833 411.212 78.6667 413.379 80C415.629 81.3333 417.379 83.0833 418.629 85.25C419.962 87.4167 420.712 90.1667 420.879 93.5C420.879 97.0833 419.837 100.375 417.754 103.375C415.671 106.292 412.671 108.625 408.754 110.375C404.921 112.042 400.337 112.875 395.004 112.875C388.837 112.875 383.546 111.542 379.129 108.875C374.712 106.208 371.712 101.917 370.129 96L382.504 91.875ZM428.298 43.125C428.298 38.0417 429.131 33.875 430.798 30.625C432.548 27.2917 435.215 24.875 438.798 23.375C442.465 21.875 447.173 21.4167 452.923 22V34.25C449.006 33.8333 446.256 34.4167 444.673 36C443.173 37.5 442.423 39.9167 442.423 43.25V49.5H453.673V61.875H442.423V112H428.298V61.875H420.673V49.5H428.298V43.125ZM485.2 112.875C478.95 112.875 473.45 111.5 468.7 108.75C464.034 106 460.367 102.167 457.7 97.25C455.117 92.3333 453.825 86.6667 453.825 80.25C453.825 74.1667 455.117 68.75 457.7 64C460.284 59.25 463.867 55.5 468.45 52.75C473.034 50 478.242 48.625 484.075 48.625C489.992 48.625 495.2 49.9167 499.7 52.5C504.2 55.0833 507.7 58.7083 510.2 63.375C512.784 67.9583 514.075 73.2917 514.075 79.375C514.075 80.375 514.034 81.4583 513.95 82.625C513.867 83.7083 513.742 84.875 513.575 86.125H469.075C469.492 89.0417 470.409 91.5833 471.825 93.75C473.325 95.8333 475.2 97.4583 477.45 98.625C479.7 99.7917 482.284 100.375 485.2 100.375C488.7 100.375 491.825 99.6667 494.575 98.25C497.409 96.8333 499.367 94.9583 500.45 92.625L512.825 96.75C510.325 101.75 506.617 105.708 501.7 108.625C496.784 111.458 491.284 112.875 485.2 112.875ZM498.7 74.625C498.617 72.0417 497.909 69.7083 496.575 67.625C495.242 65.5417 493.492 63.9167 491.325 62.75C489.159 61.5 486.742 60.875 484.075 60.875C481.742 60.875 479.534 61.4583 477.45 62.625C475.367 63.7917 473.575 65.4167 472.075 67.5C470.659 69.5 469.742 71.875 469.325 74.625H498.7ZM518.641 49.5H531.391L532.516 57.25C534.182 55.1667 536.141 53.4583 538.391 52.125C540.641 50.7083 543.057 49.75 545.641 49.25C548.307 48.75 550.974 48.8333 553.641 49.5V62.5C551.474 61.75 549.141 61.5833 546.641 62C544.224 62.3333 541.974 63.25 539.891 64.75C537.807 66.1667 536.099 68.2083 534.766 70.875C533.432 73.4583 532.766 76.6667 532.766 80.5V112H518.641V49.5ZM593.283 112L592.033 104.375C590.033 107.042 587.658 109.083 584.908 110.5C582.158 111.917 578.492 112.625 573.908 112.625C569.575 112.625 565.825 111.917 562.658 110.5C559.492 109 557.033 106.958 555.283 104.375C553.617 101.708 552.783 98.625 552.783 95.125C552.783 89.875 554.7 85.5 558.533 82C562.45 78.4167 568.158 76.2083 575.658 75.375L592.033 73.625V68.75C592.033 66.75 591.158 64.9583 589.408 63.375C587.658 61.7083 584.867 60.875 581.033 60.875C577.7 60.875 574.783 61.7083 572.283 63.375C569.867 64.9583 568.242 67.375 567.408 70.625L555.158 66.125C556.742 60.625 559.867 56.3333 564.533 53.25C569.283 50.1667 575.033 48.625 581.783 48.625C589.95 48.625 596.075 50.6667 600.158 54.75C604.242 58.8333 606.283 64.0417 606.283 70.375V112H593.283ZM592.033 84.5L577.033 86.375C573.867 86.7917 571.492 87.7083 569.908 89.125C568.325 90.4583 567.533 92.1667 567.533 94.25C567.533 96.1667 568.283 97.8333 569.783 99.25C571.367 100.583 573.492 101.25 576.158 101.25C579.575 101.25 582.45 100.625 584.783 99.375C587.2 98.125 588.992 96.3333 590.158 94C591.408 91.6667 592.033 88.7917 592.033 85.375V84.5Z" fill="#333333"/>
</g>
<defs>
<clipPath id="clip0_4143_429">
<rect width="655" height="145" fill="white"/>
</clipPath>
</defs>
</svg>
